# xmcd
#
# Track frame offsets: 
#        150
#        12705
#        25899
#        37402
#        49220
#        68477
#        82233
#        93602
#        107964
#        125863
#
# Disc length: 1837 seconds
#
# Revision: 2
# Processed by: cddbd v1.5.2PL0 Copyright (c) Steve Scherf et al.
# Submitted via: ExactAudioCopyFreeDBPlugin 1.0
#
DISCID=97072b0a
DTITLE=JOHNNY CASH and WAYLON JENNINGS - 1986 - Johnny Cash and Waylon Jen
DTITLE=nings - Heroes
DYEAR=1986
DGENRE=Country
TTITLE0=Folks out on the road
TTITLE1=I'm never gonna roam again
TTITLE2=American by birth
TTITLE3=Field of diamonds
TTITLE4=Heroes
TTITLE5=Even cowgirls get the blues
TTITLE6=Love is the way
TTITLE7=The ballad of forty dollars
TTITLE8=I'll always love you (In my own crazy way)
TTITLE9=One too many mornings
EXTD=
EXTT0=
EXTT1=
EXTT2=
EXTT3=
EXTT4=
EXTT5=
EXTT6=
EXTT7=
EXTT8=
EXTT9=
PLAYORDER=
